<svg width="16" height="16" viewBox="0 0 16 16" fill="none" xmlns="http://www.w3.org/2000/svg">
<g id="Group">
<g id="x34 AdHQw 2">
<g id="Group_2">
<path id="Vector" d="M5.39147 2.47049C5.71367 2.62087 5.97143 4.6617 6.20771 5.34914C6.27215 5.54249 6.22919 5.75731 6.07883 5.90769C5.60627 6.35882 5.13371 6.80996 4.66115 7.26109C5.58479 9.04414 6.98099 10.3546 8.74235 11.3428C9.17195 10.9131 9.60155 10.4835 10.0097 10.0538C10.246 9.81751 10.4608 9.75306 10.8044 9.88196C11.4488 10.1397 13.425 10.3546 13.5539 10.6983V13.3621C13.425 13.4481 12.1577 13.6199 10.6756 13.2977C6.61583 12.4599 3.45827 9.0871 2.62055 5.04839C2.21243 3.09348 2.53463 2.53494 2.62055 2.44901H5.39147V2.47049Z" fill="#1877F2"/>
</g>
</g>
</g>
</svg>
