<svg width="26" height="27" viewBox="0 0 26 27" fill="none" xmlns="http://www.w3.org/2000/svg">
<g id="Group">
<g id="Group_2">
<path id="Vector" d="M10.7059 10.9182H2.90889C2.75895 10.9182 2.60901 10.7658 2.60901 10.6133V2.68379C2.60901 2.5313 2.75895 2.37881 2.90889 2.37881H10.7059C10.8558 2.37881 11.0058 2.5313 11.0058 2.68379V10.6133C11.0058 10.7658 10.8858 10.9182 10.7059 10.9182Z" fill="#788292"/>
<path id="Vector_2" d="M23.0912 10.9182H15.2941C15.1442 10.9182 14.9943 10.7658 14.9943 10.6133V2.68379C14.9943 2.5313 15.1442 2.37881 15.2941 2.37881H23.0912C23.2411 2.37881 23.391 2.5313 23.391 2.68379V10.6133C23.391 10.7658 23.2411 10.9182 23.0912 10.9182Z" fill="#788292"/>
<path id="Vector_3" d="M10.7059 24.0933H2.90889C2.75895 24.0933 2.60901 23.9408 2.60901 23.7883V15.8589C2.60901 15.7064 2.75895 15.5539 2.90889 15.5539H10.7059C10.8558 15.5539 11.0058 15.7064 11.0058 15.8589V23.7883C11.0058 23.9408 10.8858 24.0933 10.7059 24.0933Z" fill="#788292"/>
<path id="Vector_4" d="M23.0912 24.0933H15.2941C15.1442 24.0933 14.9943 23.9408 14.9943 23.7883V15.8589C14.9943 15.7064 15.1442 15.5539 15.2941 15.5539H23.0912C23.2411 15.5539 23.391 15.7064 23.391 15.8589V23.7883C23.391 23.9408 23.2411 24.0933 23.0912 24.0933Z" fill="#788292"/>
</g>
</g>
</svg>
