<svg width="26" height="27" viewBox="0 0 26 27" fill="none" xmlns="http://www.w3.org/2000/svg">
<g id="Group">
<path id="Vector" d="M21.8616 5.82508H10.9158C10.556 5.82508 10.1961 5.70309 9.92619 5.42861L7.37718 3.04978C7.10728 2.80579 6.77741 2.65329 6.38756 2.65329H4.13842C3.32873 2.65329 2.69897 3.32426 2.69897 4.11721V21.2875C2.69897 22.111 3.35872 22.7514 4.13842 22.7514H21.8616C22.6713 22.7514 23.301 22.0805 23.301 21.2875V7.25849C23.301 6.49604 22.6713 5.82508 21.8616 5.82508ZM16.2837 14.822L13.5548 16.4079L10.8258 17.9938C10.6459 18.1158 10.406 17.9633 10.406 17.7498V14.5475V11.3452C10.406 11.1317 10.6459 10.9792 10.8258 11.1012L13.5548 12.6871L16.2837 14.273C16.4937 14.456 16.4937 14.7305 16.2837 14.822Z" fill="#788292"/>
</g>
</svg>
