<svg width="26" height="27" viewBox="0 0 26 27" fill="none" xmlns="http://www.w3.org/2000/svg">
<g id="Group">
<path id="Vector" d="M13.015 2.19586C7.01731 2.19586 2.15918 7.13653 2.15918 13.2361C2.15918 19.3357 7.01731 24.2764 13.015 24.2764C19.0127 24.2764 23.8708 19.3357 23.8708 13.2361C23.8708 7.13653 18.9827 2.19586 13.015 2.19586ZM18.3829 13.9376C17.3034 15.5235 15.9239 16.8349 14.4545 18.0548C14.0046 18.4208 13.5248 18.7867 13.015 19.1527C10.9458 17.6278 9.05653 15.9809 7.58709 13.8461C6.7774 12.6871 6.41754 11.3757 6.83738 9.94233C7.16725 8.75291 8.18686 8.02097 9.3864 7.92948C10.6759 7.83798 11.7255 8.35645 12.6551 9.14939C12.7751 9.24089 12.8951 9.36287 12.925 9.39337C13.6148 8.9664 14.2445 8.53943 14.9343 8.20396C15.654 7.83798 16.4637 7.83798 17.2434 8.05147C18.4729 8.38694 19.2826 9.45437 19.3426 10.7963C19.4025 11.9857 19.0127 12.9921 18.3829 13.9376Z" fill="#788292"/>
</g>
</svg>
