<svg width="26" height="27" viewBox="0 0 26 27" fill="none" xmlns="http://www.w3.org/2000/svg">
<g id="Group">
<g id="Group_2">
<g id="Group_3">
<path id="Vector" d="M22.1015 8.81392V5.27616C22.1015 4.54421 21.5017 3.96475 20.812 3.96475H19.1326V5.52015C19.1326 6.37409 18.4729 7.04504 17.6332 7.04504C16.7935 7.04504 16.1338 6.37409 16.1338 5.52015V3.96475H9.8662V5.52015C9.8662 6.37409 9.20646 7.04504 8.36678 7.04504C7.5271 7.04504 6.86736 6.37409 6.86736 5.52015V3.96475H5.188C4.46828 3.96475 3.8985 4.57471 3.8985 5.27616V8.81392H22.1015Z" fill="#788292"/>
<path id="Vector_2" d="M3.8985 10.0338V21.1656C3.8985 21.8975 4.49827 22.477 5.188 22.477H20.812C21.5317 22.477 22.1015 21.867 22.1015 21.1656V10.0338H3.8985ZM16.2837 14.822L14.7543 16.3469C14.7243 16.3774 14.7243 16.4079 14.7243 16.4384L15.0842 18.5733C15.1142 18.6648 14.9942 18.7257 14.9343 18.6952L13.045 17.6888C13.015 17.6583 12.985 17.6583 12.955 17.6888L11.0657 18.6952C10.9758 18.7257 10.8858 18.6648 10.9158 18.5733L11.2757 16.4384C11.2757 16.4079 11.2757 16.3774 11.2457 16.3469L9.71626 14.822C9.65628 14.761 9.68627 14.639 9.77624 14.639L11.8754 14.334C11.9054 14.334 11.9354 14.3036 11.9654 14.2731L12.895 12.3212C12.925 12.2297 13.045 12.2297 13.105 12.3212L14.0346 14.2731C14.0646 14.3036 14.0946 14.334 14.1246 14.334L16.2238 14.639C16.3137 14.639 16.3437 14.761 16.2837 14.822Z" fill="#788292"/>
</g>
<path id="Vector_3" d="M17.6332 1.6774C17.3034 1.6774 17.0335 1.95188 17.0335 2.28736V5.52013C17.0335 5.85561 17.3034 6.13009 17.6332 6.13009C17.9631 6.13009 18.233 5.85561 18.233 5.52013V2.28736C18.233 1.95188 17.9631 1.6774 17.6332 1.6774ZM8.3668 1.6774C8.03693 1.6774 7.76703 1.95188 7.76703 2.28736V5.52013C7.76703 5.85561 8.03693 6.13009 8.3668 6.13009C8.69667 6.13009 8.96657 5.85561 8.96657 5.52013V2.28736C8.96657 1.95188 8.69667 1.6774 8.3668 1.6774Z" fill="#788292"/>
</g>
</g>
</svg>
