<svg width="26" height="27" viewBox="0 0 26 27" fill="none" xmlns="http://www.w3.org/2000/svg">
<g id="Group">
<path id="Vector" d="M23.6009 11.0707H20.752C20.5721 10.3998 20.3022 9.75932 19.9723 9.14936L21.9816 7.10599C22.2814 6.80101 22.2814 6.28254 21.9816 5.97756L20.1223 4.08669C19.8224 3.78171 19.3126 3.78171 19.0127 4.08669L17.0035 6.13005C16.4037 5.79458 15.7739 5.5201 15.1142 5.33711V2.43981C15.1142 1.98234 14.7543 1.64685 14.3345 1.64685H11.6955C11.2457 1.64685 10.9158 2.01284 10.9158 2.43981V5.33711C10.2561 5.5201 9.62631 5.79458 9.02654 6.13005L7.01731 4.08669C6.71742 3.78171 6.20762 3.78171 5.90774 4.08669L4.04845 5.97756C3.74857 6.28254 3.74857 6.80101 4.04845 7.10599L6.05768 9.14936C5.72781 9.75932 5.45791 10.3998 5.27798 11.0707H2.39908C1.94926 11.0707 1.61938 11.4367 1.61938 11.8637V14.5475C1.61938 15.0049 1.97925 15.3404 2.39908 15.3404H5.24799C5.42792 16.0114 5.69782 16.6518 6.02769 17.2618L4.01846 19.3052C3.71858 19.6101 3.71858 20.1286 4.01846 20.4336L5.87775 22.3245C6.17763 22.6294 6.68744 22.6294 6.98732 22.3245L8.99655 20.3116C9.59632 20.6471 10.2261 20.9215 10.8858 21.1045V24.0018C10.8858 24.4593 11.2457 24.7948 11.6655 24.7948H14.3045C14.7543 24.7948 15.0842 24.4288 15.0842 24.0018V21.1045C15.744 20.9215 16.3737 20.6471 16.9735 20.3116L18.9827 22.355C19.2826 22.6599 19.7924 22.6599 20.0923 22.355L21.9516 20.4641C22.2515 20.1591 22.2515 19.6406 21.9516 19.3357L19.9423 17.2923C20.2722 16.6823 20.5421 16.0419 20.722 15.3709H23.5709C24.0208 15.3709 24.3506 15.005 24.3506 14.578V11.8942C24.4106 11.4367 24.0508 11.0707 23.6009 11.0707ZM13.015 16.9873C10.9758 16.9873 9.29643 15.3099 9.29643 13.2056C9.29643 11.1317 10.9458 9.42383 13.015 9.42383C15.0542 9.42383 16.7336 11.1012 16.7336 13.2056C16.7036 15.3099 15.0542 16.9873 13.015 16.9873Z" fill="#788292"/>
</g>
</svg>
