<svg width="26" height="27" viewBox="0 0 26 27" fill="none" xmlns="http://www.w3.org/2000/svg">
<g id="Group">
<path id="Vector" d="M13.015 2.16534C7.01731 2.16534 2.15918 7.10601 2.15918 13.2056C2.15918 19.3052 7.01731 24.2458 13.015 24.2458C19.0127 24.2458 23.8708 19.3052 23.8708 13.2056C23.8708 7.10601 18.9827 2.16534 13.015 2.16534ZM13.6148 20.0981C13.4049 20.2811 13.135 20.3726 12.8051 20.3726C12.4752 20.3726 12.2053 20.2811 11.9654 20.0981C11.7555 19.9151 11.6355 19.6406 11.6355 19.3357C11.6355 19.0612 11.7555 18.8172 11.9654 18.6037C12.1753 18.3902 12.4752 18.2987 12.8051 18.2987C13.135 18.2987 13.3749 18.3902 13.5848 18.6037C13.7947 18.8172 13.8847 19.0612 13.8847 19.3357C13.9147 19.6406 13.8247 19.8846 13.6148 20.0981ZM16.7036 11.2842C16.5237 11.7112 16.3137 12.0772 16.0139 12.3821C15.744 12.6871 15.4441 12.9921 15.1142 13.2971C14.8743 13.5411 14.6044 13.7545 14.3945 13.9985C14.1546 14.212 13.9746 14.4865 13.8547 14.822C13.7347 15.127 13.6748 15.5539 13.6748 16.0724V16.8958H11.9054V15.6759C11.9054 15.0355 11.9954 14.5475 12.1453 14.151C12.3253 13.7545 12.5352 13.4496 12.7751 13.2056C13.045 12.9616 13.3149 12.6871 13.6148 12.4431C14.0046 12.1077 14.3345 11.7417 14.6344 11.3757C14.9343 11.0097 15.0542 10.5218 15.0542 9.94231C15.0542 9.51534 14.9643 9.14936 14.7543 8.81388C14.5444 8.5089 14.3045 8.23444 13.9746 8.08195C13.6448 7.89896 13.3149 7.80746 12.955 7.80746C12.5352 7.80746 12.1753 7.89896 11.8455 8.08195C11.5156 8.26493 11.2457 8.5089 11.0358 8.81388C10.8258 9.11886 10.6459 9.45435 10.526 9.82033L9.02654 9.11886C9.1165 8.84438 9.29643 8.5394 9.50635 8.20393C9.71627 7.86845 9.98617 7.53299 10.316 7.22801C10.6459 6.92303 11.0358 6.64854 11.5156 6.43505C11.9954 6.22157 12.5352 6.13007 13.135 6.13007C13.8547 6.13007 14.5144 6.28257 15.0842 6.55705C15.654 6.83153 16.1038 7.25849 16.4337 7.80746C16.7636 8.35642 16.9435 9.02738 16.9435 9.82033C16.9735 10.3388 16.8835 10.8573 16.7036 11.2842Z" fill="#788292"/>
</g>
</svg>
