<svg width="26" height="27" viewBox="0 0 26 27" fill="none" xmlns="http://www.w3.org/2000/svg">
<g id="Group">
<g id="Group_2">
<path id="Vector" d="M21.0819 12.7481C20.902 11.9247 20.0923 11.3452 19.1626 11.3452H15.564V14.456C15.564 15.8894 14.4245 17.0483 13.015 17.0483C11.6056 17.0483 10.466 15.8894 10.466 14.456V11.3452H7.07729C6.17764 11.3452 5.36795 11.9247 5.15803 12.7176L2.60901 18.8782H23.481L21.0819 12.7481Z" fill="#788292"/>
<path id="Vector_2" d="M24.1108 20.5556L23.9308 20.1286H2.09922L1.94927 20.5251C1.64939 21.6535 2.60902 22.7209 3.86854 22.7209H22.1915C23.451 22.6904 24.3806 21.6535 24.1108 20.5556Z" fill="#788292"/>
<path id="Vector_3" d="M11.9654 6.22157V14.4865C11.9654 15.066 12.4453 15.5539 13.015 15.5539C13.5848 15.5539 14.0646 15.066 14.0646 14.4865V6.22157C14.7544 5.85559 15.2342 5.09315 15.2342 4.2392C15.2342 2.98879 14.2446 1.98236 13.015 1.98236C11.7855 1.98236 10.7959 2.98879 10.7959 4.2392C10.8259 5.09315 11.2757 5.8251 11.9654 6.22157Z" fill="#788292"/>
</g>
</g>
</svg>
